<?xml version="1.0"?>
<svg xmlns="http://www.w3.org/2000/svg" height="512px" viewBox="0 0 512 512" width="512px"><g transform="matrix(0.998301 0 0 0.998301 -27.6056 0.434851)"><g id="solid"><circle cx="96" cy="352" r="24" data-original="#000000" class="active-path" data-old_color="#000000" fill="#FF0000"/><path d="m32 344h19.056l8-16h-27.056z" data-original="#000000" class="active-path" data-old_color="#000000" fill="#FF0000"/><path d="m101.268 262.021a8 8 0 0 1 -3.07 1.671l-50.198 14.342v33.966h72a8 8 0 0 1 7.155 4.422l13.789 27.578h83.056v-136h-60.994zm82.732 49.979h-16a8 8 0 0 1 0-16h16a8 8 0 0 1 0 16zm-8-96h24a8 8 0 0 1 8 8v48a8 8 0 0 1 -8 8h-64a8 8 0 0 1 -8-8v-16a8 8 0 0 1 3-6.247l40-32a8 8 0 0 1 5-1.753z" data-original="#000000" class="active-path" data-old_color="#000000" fill="#FF0000"/><path d="m192 232h-13.193l-34.807 27.845v4.155h48z" data-original="#000000" class="active-path" data-old_color="#000000" fill="#FF0000"/><path d="m376.422 178.845a8 8 0 0 1 11.578 7.155v34h40v-34a8 8 0 0 1 11.578-7.155l7.683 3.841 6.445-9.666-16.187-16.187a16.419 16.419 0 0 0 -6.66-4.063 26.363 26.363 0 0 1 -45.718 0 16.419 16.419 0 0 0 -6.66 4.063l-16.187 16.187 6.445 9.666z" data-original="#000000" class="active-path" data-old_color="#000000" fill="#FF0000"/><path d="m337.454 198.431a102.8 102.8 0 1 0 -.01-.058c.004.019.007.038.01.058zm8.889-32.088 20.824-20.824a32.286 32.286 0 0 1 22.981-9.519 8 8 0 0 1 7.715 5.882l.138.5a10.372 10.372 0 0 0 20 0l.137-.5a8 8 0 0 1 7.714-5.882 32.286 32.286 0 0 1 22.981 9.519l20.824 20.824a8 8 0 0 1 1 10.095l-14 21a8 8 0 0 1 -10.234 2.717l-2.423-1.211v29.056a8 8 0 0 1 -8 8h-56a8 8 0 0 1 -8-8v-29.056l-2.422 1.211a8 8 0 0 1 -10.234-2.717l-14-21a8 8 0 0 1 .999-10.095z" data-original="#000000" class="active-path" data-old_color="#000000" fill="#FF0000"/><path d="m444.944 344h35.056v-16h-43.056z" data-original="#000000" class="active-path" data-old_color="#000000" fill="#FF0000"/><path d="m272 304h64v-64h-64zm32-56a24 24 0 1 1 -24 24 24.027 24.027 0 0 1 24-24z" data-original="#000000" class="active-path" data-old_color="#000000" fill="#FF0000"/><circle cx="304" cy="272" r="8" data-original="#000000" class="active-path" data-old_color="#000000" fill="#FF0000"/><circle cx="400" cy="352" r="24" data-original="#000000" class="active-path" data-old_color="#000000" fill="#FF0000"/><path d="m472 312v-30.826l-8.645-28.82a87.821 87.821 0 0 1 -111.355-.521v60.167a8 8 0 0 1 -8 8h-80a8 8 0 0 1 -8-8v-80a8 8 0 0 1 8-8h65.628a87.424 87.424 0 0 1 -6.3-16h-83.328v136h115.056l13.789-27.578a8 8 0 0 1 7.155-4.422z" data-original="#000000" class="active-path" data-old_color="#000000" fill="#FF0000"/></g></g> </svg>
