<?xml version="1.0"?>
<svg xmlns="http://www.w3.org/2000/svg" height="512px" viewBox="0 -4 512 512" width="512px"><g><path d="m444.351562 10.160156-12.285156-10.160156h-352.132812l-12.285156 10.160156c-42.992188 35.5625-67.648438 87.957032-67.648438 143.75v101.585938h71.878906v248.683594h368.242188v-248.683594h71.878906v-101.585938c0-55.792968-24.65625-108.1875-67.648438-143.75zm37.648438 215.335938h-41.878906v-75.199219h-30v323.878906h-308.242188v-323.878906h-30v75.199219h-41.878906v-71.585938c0-46.820312 20.691406-90.789062 56.769531-120.632812l3.964844-3.277344h71.921875c5.058594 44.679688 43.078125 79.511719 89.085938 79.511719h8.515624c46.007813 0 84.027344-34.832031 89.089844-79.511719h71.917969l3.964844 3.277344c36.078125 29.84375 56.769531 73.8125 56.769531 120.632812zm-162.941406-195.496094c-4.835938 28.078125-29.363282 49.511719-58.800782 49.511719h-8.515624c-29.4375 0-53.964844-21.433594-58.800782-49.511719zm0 0" data-original="#000000" class="active-path" data-old_color="#000000" fill="#FF0000"/><path d="m244.542969 299.511719h30.34375v-90h-45.773438v22.882812h15.429688zm0 0" data-original="#000000" class="active-path" data-old_color="#000000" fill="#FF0000"/><path d="m329.019531 157.183594-18.019531 23.984375c23.300781 17.507812 36.664062 44.238281 36.664062 73.34375 0 50.542969-41.117187 91.664062-91.664062 91.664062s-91.667969-41.121093-91.667969-91.664062c0-29.101563 13.367188-55.835938 36.667969-73.339844l-18.019531-23.988281c-30.914063 23.226562-48.648438 58.703125-48.648438 97.328125 0 57.269531 39.78125 105.421875 93.160157 118.289062l-25.871094 32.339844 23.425781 18.742187 30.953125-38.695312 30.953125 38.695312 23.425781-18.742187-25.875-32.34375c53.378906-12.863281 93.160156-61.015625 93.160156-118.285156.003907-38.625-17.726562-74.101563-48.644531-97.328125zm0 0" data-original="#000000" class="active-path" data-old_color="#000000" fill="#FF0000"/></g> </svg>
